<svg xmlns="http://www.w3.org/2000/svg" xmlns:xlink="http://www.w3.org/1999/xlink" width="18" height="14" viewBox="0 0 18 14"><defs><path id="bz9ua" d="M1010.92 1483.77c0 .11 0 .22-.05.34l-4.96-5.35 5.01-3.9zm-14.7 1.12l5.01-5.35 1.9 1.45 1.84-1.45 5.12 5.35h-13.87zm-.89-1.12v-8.9l5.01 3.89-4.95 5.35c-.06-.12-.06-.23-.06-.34zm15.04-10.02l-7.24 5.57-7.24-5.57zm-.56-1.12h-13.37c-1.22 0-2.22 1-2.22 2.23v8.91c0 1.23 1 2.23 2.22 2.23h13.37c1.23 0 2.23-1 2.23-2.23v-8.9c0-1.23-1-2.24-2.23-2.24z"/></defs><g><g transform="translate(-994 -1472)"><use fill="#fff" xlink:href="#bz9ua"/></g></g></svg>