<svg xmlns="http://www.w3.org/2000/svg" xmlns:xlink="http://www.w3.org/1999/xlink" width="13" height="18" viewBox="0 0 13 18"><defs><path id="3km9a" d="M583.4 1482.36c0 1.4-1.23 2.52-2.74 2.52h-4.58c-1.51 0-2.75-1.12-2.75-2.52v-1.67c0-1.18.9-2.19 2.13-2.47a4.54 4.54 0 0 0 5.82 0c1.23.28 2.12 1.23 2.12 2.47zm-8.95-8.67c0-2.46 1.74-4.47 3.92-4.47 2.18 0 3.92 2.01 3.92 4.47s-1.74 4.48-3.92 4.48c-2.18 0-3.92-2.02-3.92-4.48zm7.84 3.58a5.81 5.81 0 0 0 1.11-3.58c0-3.07-2.23-5.6-5.03-5.6-2.8 0-5.04 2.53-5.04 5.6 0 1.35.45 2.58 1.12 3.58a3.33 3.33 0 0 0-2.23 3.14v2.23a3.37 3.37 0 0 0 3.35 3.36h5.6a3.37 3.37 0 0 0 3.35-3.36v-2.23c0-1.46-.95-2.69-2.23-3.14z"/></defs><g><g transform="translate(-572 -1468)"><use fill="#fff" xlink:href="#3km9a"/></g></g></svg>